<svg width="679" height="366" viewBox="0 0 679 366" fill="none" xmlns="http://www.w3.org/2000/svg">
<g clip-path="url(#clip0_101_224)">
<path d="M607.96 364.37H158.96C152.18 364.37 146.67 358.86 146.67 352.08V99.44C146.67 92.66 152.18 87.15 158.96 87.15H607.96C614.74 87.15 620.25 92.66 620.25 99.44V352.08C620.25 358.86 614.74 364.37 607.96 364.37ZM158.96 95.15C156.59 95.15 154.67 97.07 154.67 99.44V352.08C154.67 354.45 156.59 356.37 158.96 356.37H607.96C610.33 356.37 612.25 354.45 612.25 352.08V99.44C612.25 97.07 610.33 95.15 607.96 95.15H158.96Z" fill="#15616D"/>
<path d="M271.44 210.85H249.78V265.93H271.44V210.85Z" fill="#FF7D00"/>
<path d="M306.54 205.56H284.88V265.93H306.54V205.56Z" fill="#FF7D00"/>
<path d="M341.64 226.22H319.98V265.93H341.64V226.22Z" fill="#FF7D00"/>
<path d="M376.74 213.96H355.08V265.93H376.74V213.96Z" fill="#FF7D00"/>
<path d="M411.84 224.46H390.18V265.92H411.84V224.46Z" fill="#FF7D00"/>
<path d="M446.94 193.52H425.28V265.93H446.94V193.52Z" fill="#FF7D00"/>
<path d="M482.04 205.56H460.38V265.93H482.04V205.56Z" fill="#FF7D00"/>
<path d="M517.14 195.07H495.48V265.93H517.14V195.07Z" fill="#FF7D00"/>
<path d="M176.84 122.18H336.7C338.14 122.18 339.31 123.35 339.31 124.79C339.31 126.23 338.14 127.4 336.7 127.4H176.84C175.4 127.4 174.23 126.23 174.23 124.79C174.23 123.35 175.4 122.18 176.84 122.18Z" fill="#15616D"/>
<path d="M678.62 364.37C678.62 365.2 677.95 365.87 677.12 365.87H1.5C0.67 365.87 0 365.2 0 364.37C0 363.54 0.67 362.87 1.5 362.87H677.12C677.95 362.87 678.62 363.54 678.62 364.37Z" fill="#001524"/>
<path d="M133.7 60.68L153.35 67.14V38.85H135.52L133.7 60.68Z" fill="#F3A3A6"/>
<path d="M150.92 46.68C161.734 46.68 170.5 37.9138 170.5 27.1C170.5 16.2863 161.734 7.52002 150.92 7.52002C140.106 7.52002 131.34 16.2863 131.34 27.1C131.34 37.9138 140.106 46.68 150.92 46.68Z" fill="#F3A3A6"/>
<path d="M145.93 28.63L148.63 31.91L153.51 23.37C153.51 23.37 159.74 23.69 159.74 19.07C159.74 14.45 165.46 14.32 165.46 14.32C165.46 14.32 173.55 0.189975 156.79 3.90997C156.79 3.90997 145.16 -4.06003 139.38 2.74997C139.38 2.74997 121.65 11.68 126.72 27.23L135.15 43.25L137.06 39.62C137.06 39.62 135.9 24.39 145.93 28.63Z" fill="#001524"/>
<path d="M144.12 328.67H128.3V351.11H144.12V328.67Z" fill="#F3A3A6"/>
<path d="M142.37 363.96C139.66 364.21 126.13 365.27 125.45 362.17C124.83 359.32 125.74 356.34 125.87 355.94C127.17 343 127.65 342.85 127.94 342.76C128.4 342.63 129.75 343.26 131.93 344.67L132.07 344.76L132.1 344.92C132.14 345.12 133.11 349.87 137.69 349.15C140.83 348.65 141.85 347.96 142.18 347.62C141.91 347.5 141.58 347.29 141.35 346.92C141.01 346.39 140.95 345.71 141.17 344.9C141.76 342.75 143.53 339.57 143.6 339.44L143.8 339.08L161.78 351.21L172.88 354.38C173.72 354.62 174.39 355.22 174.73 356.02C175.2 357.14 174.91 358.44 174.01 359.25C171.99 361.06 167.99 364.17 163.78 364.55C162.66 364.65 161.18 364.69 159.52 364.69C152.57 364.69 142.44 363.97 142.36 363.96H142.37Z" fill="#001524"/>
<path d="M94.7645 294.982L80.4607 312.272L92.6502 322.356L106.954 305.066L94.7645 294.982Z" fill="#F3A3A6"/>
<path d="M83.13 331.15C80.89 329.61 69.78 321.81 71.23 318.99C72.57 316.4 75.17 314.69 75.53 314.46C84.78 305.32 85.25 305.51 85.53 305.63C85.97 305.82 86.6 307.17 87.39 309.64L87.44 309.79L87.36 309.93C87.26 310.11 84.98 314.39 88.97 316.75C91.71 318.37 92.94 318.48 93.4 318.43C93.27 318.17 93.15 317.79 93.2 317.36C93.27 316.74 93.66 316.17 94.36 315.69C96.19 314.41 99.57 313.09 99.72 313.03L100.1 312.88L106.22 333.69L112.75 343.21C113.24 343.93 113.38 344.82 113.13 345.66C112.78 346.82 111.73 347.64 110.51 347.69C107.8 347.8 102.74 347.64 99.25 345.25C98.33 344.62 97.16 343.71 95.88 342.65C90.53 338.22 83.18 331.21 83.12 331.15H83.13Z" fill="#001524"/>
<path d="M170.28 155.58H116.02L128.08 334.94H146.17L170.29 155.58H170.28Z" fill="#001524"/>
<path d="M159.23 165.46L170.28 155.58L164.75 254.23L102.96 313.01L87.55 300.28L123.56 253.56L159.23 165.46Z" fill="#001524"/>
<path d="M159.23 50.08L132.43 45.73L124.11 60.28C113.53 78.78 109.22 100.2 111.81 121.35L116.02 155.6H170.28L159.23 50.09V50.08Z" fill="#FF7D00"/>
<path d="M137.47 187.88C138.58 193.41 136.51 198.46 132.86 199.16C129.2 199.85 125.34 195.93 124.23 190.39C123.76 188.18 123.84 185.9 124.47 183.73L120.07 160.22L131.57 158.43L134.68 181.8C136.1 183.59 137.06 185.67 137.47 187.89V187.88Z" fill="#F3A3A6"/>
<path d="M123.48 181.51L106.59 129.33V129.25L112.97 75.52C113.95 67.29 120.93 61.09 129.21 61.09C134.28 61.09 138.98 63.38 142.1 67.38C145.22 71.38 146.31 76.49 145.08 81.42L133.81 126.49L136.5 177.64L123.47 181.51H123.48Z" fill="#FF7D00"/>
</g>
<defs>
<clipPath id="clip0_101_224">
<rect width="678.62" height="365.87" fill="white"/>
</clipPath>
</defs>
</svg>
