<svg width="88" height="51" viewBox="0 0 88 51" fill="none" xmlns="http://www.w3.org/2000/svg">
<path d="M17.8061 0.471998C19.8221 0.471998 21.5181 0.615998 22.8941 0.903998C24.2701 1.192 25.6461 1.688 27.0221 2.392C27.2461 2.52 27.3741 2.632 27.4061 2.728C27.4381 2.824 27.4861 3.064 27.5501 3.448L28.1261 9.16C28.1261 9.256 28.0301 9.32 27.8381 9.352C27.6781 9.352 27.5821 9.304 27.5501 9.208C26.0781 3.864 22.7821 1.192 17.6621 1.192C14.9741 1.192 12.6061 1.784 10.5581 2.968C8.51013 4.152 6.92613 5.848 5.80613 8.056C4.68613 10.232 4.12613 12.776 4.12613 15.688C4.12613 18.472 4.73413 21.032 5.95013 23.368C7.19813 25.672 8.86213 27.496 10.9421 28.84C13.0541 30.184 15.3421 30.856 17.8061 30.856C20.4301 30.856 22.5581 30.216 24.1901 28.936C25.8221 27.656 27.0701 25.704 27.9341 23.08C27.9341 23.016 28.0141 22.984 28.1741 22.984C28.3981 22.984 28.5101 23.032 28.5101 23.128L28.0301 28.408C27.9981 28.792 27.9501 29.032 27.8861 29.128C27.8221 29.224 27.6941 29.336 27.5021 29.464C25.8381 30.264 24.2701 30.824 22.7981 31.144C21.3581 31.464 19.6941 31.624 17.8061 31.624C14.4461 31.624 11.4381 30.968 8.78213 29.656C6.15813 28.312 4.11013 26.44 2.63813 24.04C1.16613 21.64 0.430125 18.888 0.430125 15.784C0.430125 12.776 1.18213 10.12 2.68613 7.816C4.19013 5.48 6.25413 3.672 8.87813 2.392C11.5341 1.112 14.5101 0.471998 17.8061 0.471998ZM52.8724 7.336C52.8724 7.432 52.7924 7.496 52.6324 7.528C52.4724 7.528 52.3764 7.48 52.3444 7.384C52.2484 5.688 51.7364 4.376 50.8084 3.448C49.8804 2.488 48.6484 2.008 47.1124 2.008H44.1844C43.0964 2.008 42.2804 2.088 41.7364 2.248C41.1924 2.408 40.8084 2.696 40.5844 3.112C40.3924 3.528 40.2964 4.136 40.2964 4.936V15.448H45.1444C46.8404 15.448 48.0404 15.192 48.7444 14.68C49.4804 14.136 49.8484 13.272 49.8484 12.088C49.8484 12.024 49.9444 11.992 50.1364 11.992C50.3284 11.992 50.4244 12.024 50.4244 12.088L50.3764 15.976C50.3764 16.904 50.3924 17.608 50.4244 18.088L50.4724 20.392C50.4724 20.456 50.3764 20.488 50.1844 20.488C49.9924 20.488 49.8964 20.456 49.8964 20.392C49.8964 18.984 49.5124 17.976 48.7444 17.368C48.0084 16.76 46.7604 16.456 45.0004 16.456H40.2964V26.92C40.2964 27.944 40.4244 28.696 40.6804 29.176C40.9684 29.624 41.5124 29.944 42.3124 30.136C43.1124 30.328 44.3764 30.424 46.1044 30.424C46.2004 30.424 46.2484 30.52 46.2484 30.712C46.2484 30.904 46.2004 31 46.1044 31C44.7924 31 43.7684 30.984 43.0324 30.952L38.7124 30.904L35.4484 30.952C34.8724 30.984 34.0564 31 33.0004 31C32.9364 31 32.9044 30.904 32.9044 30.712C32.9044 30.52 32.9364 30.424 33.0004 30.424C34.2164 30.424 35.1124 30.344 35.6884 30.184C36.2644 30.024 36.6484 29.72 36.8404 29.272C37.0644 28.792 37.1764 28.072 37.1764 27.112V4.888C37.1764 3.928 37.0644 3.224 36.8404 2.776C36.6484 2.328 36.2644 2.024 35.6884 1.864C35.1444 1.672 34.2644 1.576 33.0484 1.576C32.9844 1.576 32.9524 1.48 32.9524 1.288C32.9524 1.096 32.9844 1 33.0484 1H52.3444C52.6324 1 52.7764 1.144 52.7764 1.432L52.8724 7.336ZM82.8623 6.28C82.8623 3.144 81.4703 1.576 78.6863 1.576C78.5903 1.576 78.5423 1.48 78.5423 1.288C78.5423 1.096 78.5903 1 78.6863 1L80.7502 1.048C81.9023 1.112 82.8143 1.144 83.4863 1.144C84.0303 1.144 84.8143 1.112 85.8383 1.048L87.8543 1C87.9183 1 87.9503 1.096 87.9503 1.288C87.9503 1.48 87.9183 1.576 87.8543 1.576C85.2943 1.576 84.0143 3.144 84.0143 6.28V19.912C84.0143 23.592 82.9903 26.472 80.9423 28.552C78.8943 30.6 76.1423 31.624 72.6863 31.624C70.3183 31.624 68.2383 31.16 66.4463 30.232C64.6863 29.304 63.3103 27.992 62.3183 26.296C61.3583 24.568 60.8783 22.552 60.8783 20.248V4.888C60.8783 3.928 60.7823 3.224 60.5903 2.776C60.3983 2.328 60.0143 2.024 59.4383 1.864C58.8943 1.672 58.0143 1.576 56.7983 1.576C56.7343 1.576 56.7023 1.48 56.7023 1.288C56.7023 1.096 56.7343 1 56.7983 1L59.1503 1.048C60.4943 1.112 61.5823 1.144 62.4143 1.144C63.3103 1.144 64.4303 1.112 65.7743 1.048L68.0782 1C68.1743 1 68.2223 1.096 68.2223 1.288C68.2223 1.48 68.1743 1.576 68.0782 1.576C66.8943 1.576 66.0143 1.672 65.4383 1.864C64.8623 2.056 64.4783 2.392 64.2863 2.872C64.0943 3.32 63.9983 4.024 63.9983 4.984V18.568C63.9983 22.312 64.8463 25.192 66.5423 27.208C68.2703 29.192 70.6703 30.184 73.7423 30.184C76.6223 30.184 78.8623 29.288 80.4623 27.496C82.0623 25.672 82.8623 23.16 82.8623 19.96V6.28ZM13.576 39.824C14.248 39.824 14.8133 39.872 15.272 39.968C15.7307 40.064 16.1893 40.2293 16.648 40.464C16.7227 40.5067 16.7653 40.544 16.776 40.576C16.7867 40.608 16.8027 40.688 16.824 40.816L17.016 42.72C17.016 42.752 16.984 42.7733 16.92 42.784C16.8667 42.784 16.8347 42.768 16.824 42.736C16.3333 40.9547 15.2347 40.064 13.528 40.064C12.632 40.064 11.8427 40.2613 11.16 40.656C10.4773 41.0507 9.94933 41.616 9.576 42.352C9.20267 43.0773 9.016 43.9253 9.016 44.896C9.016 45.824 9.21867 46.6773 9.624 47.456C10.04 48.224 10.5947 48.832 11.288 49.28C11.992 49.728 12.7547 49.952 13.576 49.952C14.4507 49.952 15.16 49.7387 15.704 49.312C16.248 48.8853 16.664 48.2347 16.952 47.36C16.952 47.3387 16.9787 47.328 17.032 47.328C17.1067 47.328 17.144 47.344 17.144 47.376L16.984 49.136C16.9733 49.264 16.9573 49.344 16.936 49.376C16.9147 49.408 16.872 49.4453 16.808 49.488C16.2533 49.7547 15.7307 49.9413 15.24 50.048C14.76 50.1547 14.2053 50.208 13.576 50.208C12.456 50.208 11.4533 49.9893 10.568 49.552C9.69333 49.104 9.01067 48.48 8.52 47.68C8.02933 46.88 7.784 45.9627 7.784 44.928C7.784 43.9253 8.03467 43.04 8.536 42.272C9.03733 41.4933 9.72533 40.8907 10.6 40.464C11.4853 40.0373 12.4773 39.824 13.576 39.824ZM23.8248 50.192C22.8328 50.192 21.9474 49.9627 21.1688 49.504C20.4008 49.0347 19.8034 48.4053 19.3768 47.616C18.9608 46.816 18.7528 45.9467 18.7528 45.008C18.7528 43.9093 19.0301 42.9707 19.5848 42.192C20.1394 41.4027 20.8488 40.8107 21.7128 40.416C22.5874 40.0213 23.4781 39.824 24.3848 39.824C25.3981 39.824 26.2888 40.064 27.0568 40.544C27.8248 41.0133 28.4114 41.6373 28.8168 42.416C29.2328 43.1947 29.4408 44.0213 29.4408 44.896C29.4408 45.8667 29.1848 46.7573 28.6728 47.568C28.1608 48.3787 27.4728 49.0187 26.6088 49.488C25.7554 49.9573 24.8274 50.192 23.8248 50.192ZM24.3848 49.856C25.1101 49.856 25.7608 49.68 26.3368 49.328C26.9234 48.976 27.3821 48.4587 27.7128 47.776C28.0541 47.0933 28.2248 46.2827 28.2248 45.344C28.2248 44.3413 28.0381 43.4507 27.6648 42.672C27.2914 41.8933 26.7634 41.2853 26.0808 40.848C25.4088 40.4107 24.6194 40.192 23.7128 40.192C22.5394 40.192 21.6221 40.5707 20.9608 41.328C20.2994 42.0853 19.9688 43.1253 19.9688 44.448C19.9688 45.4507 20.1554 46.368 20.5288 47.2C20.9021 48.0213 21.4248 48.672 22.0968 49.152C22.7688 49.6213 23.5314 49.856 24.3848 49.856ZM41.4828 40C41.5148 40 41.5308 40.032 41.5308 40.096C41.5308 40.16 41.5148 40.192 41.4828 40.192C41.0348 40.192 40.7094 40.3147 40.5068 40.56C40.3041 40.8053 40.2028 41.2053 40.2028 41.76V50.192C40.2028 50.2133 40.1761 50.2293 40.1228 50.24C40.0694 50.2507 40.0321 50.2453 40.0108 50.224L32.6508 41.312L32.5068 41.152V48.256C32.5068 48.8107 32.6028 49.2107 32.7948 49.456C32.9974 49.6907 33.3174 49.808 33.7548 49.808C33.7868 49.808 33.8028 49.84 33.8028 49.904C33.8028 49.968 33.7868 50 33.7548 50C33.4881 50 33.2854 49.9947 33.1468 49.984L32.3468 49.968L31.5308 49.984C31.3814 49.9947 31.1628 50 30.8748 50C30.8534 50 30.8428 49.968 30.8428 49.904C30.8428 49.84 30.8534 49.808 30.8748 49.808C31.3334 49.808 31.6588 49.6907 31.8508 49.456C32.0428 49.2107 32.1388 48.8107 32.1388 48.256V40.768C31.7228 40.384 31.3014 40.192 30.8748 40.192C30.8428 40.192 30.8268 40.16 30.8268 40.096C30.8268 40.032 30.8428 40 30.8748 40L31.4668 40.016C31.5948 40.0267 31.7708 40.032 31.9948 40.032C32.2294 40.032 32.4214 40.0267 32.5707 40.016C32.7201 40.0053 32.8374 40 32.9228 40C33.0081 40 33.0668 40.0213 33.0988 40.064C33.1414 40.096 33.2054 40.176 33.2908 40.304C33.4188 40.496 33.5468 40.672 33.6748 40.832L39.8348 48.4V41.76C39.8348 41.2053 39.7388 40.8053 39.5468 40.56C39.3654 40.3147 39.0561 40.192 38.6188 40.192C38.5974 40.192 38.5868 40.16 38.5868 40.096C38.5868 40.032 38.5974 40 38.6188 40L39.2428 40.016C39.5628 40.0373 39.8241 40.048 40.0268 40.048C40.2188 40.048 40.4854 40.0373 40.8268 40.016L41.4828 40ZM44.1638 41.872C44.1638 42.288 44.2651 42.6507 44.4678 42.96C44.6704 43.2693 44.9158 43.5307 45.2038 43.744C45.5024 43.9467 45.9078 44.2027 46.4198 44.512C46.9851 44.8533 47.4171 45.136 47.7158 45.36C48.0251 45.584 48.2864 45.872 48.4998 46.224C48.7238 46.5653 48.8358 46.976 48.8358 47.456C48.8358 47.968 48.7078 48.432 48.4518 48.848C48.1958 49.264 47.8171 49.5947 47.3158 49.84C46.8251 50.0747 46.2331 50.192 45.5398 50.192C44.7184 50.192 43.9664 50.0053 43.2838 49.632C43.2304 49.6 43.1931 49.5627 43.1718 49.52C43.1611 49.4773 43.1504 49.4133 43.1398 49.328L42.9318 47.152C42.9211 47.1093 42.9424 47.0827 42.9958 47.072C43.0598 47.0613 43.0971 47.0773 43.1078 47.12C43.2784 47.888 43.5931 48.5493 44.0518 49.104C44.5211 49.6587 45.1398 49.936 45.9078 49.936C46.4411 49.936 46.8891 49.792 47.2518 49.504C47.6251 49.2053 47.8118 48.736 47.8118 48.096C47.8118 47.616 47.7051 47.2 47.4918 46.848C47.2784 46.496 47.0171 46.208 46.7078 45.984C46.4091 45.7493 45.9984 45.4773 45.4758 45.168C44.9638 44.8587 44.5584 44.592 44.2598 44.368C43.9718 44.144 43.7264 43.8613 43.5238 43.52C43.3211 43.1787 43.2198 42.7787 43.2198 42.32C43.2198 41.7867 43.3584 41.3333 43.6358 40.96C43.9238 40.576 44.2918 40.2933 44.7398 40.112C45.1984 39.92 45.6838 39.824 46.1958 39.824C46.8251 39.824 47.4491 39.952 48.0678 40.208C48.2278 40.2613 48.3078 40.352 48.3078 40.48L48.4198 42.32C48.4198 42.3627 48.3931 42.384 48.3398 42.384C48.2864 42.384 48.2544 42.3627 48.2438 42.32C48.1584 41.7653 47.9291 41.2533 47.5558 40.784C47.1824 40.304 46.6438 40.064 45.9398 40.064C45.3424 40.064 44.8944 40.24 44.5958 40.592C44.3078 40.9333 44.1638 41.36 44.1638 41.872ZM57.3031 47.616C57.3031 47.5947 57.3245 47.584 57.3671 47.584C57.3991 47.584 57.4258 47.5893 57.4471 47.6C57.4791 47.6107 57.4951 47.6267 57.4951 47.648C57.3991 48.32 57.3511 49.024 57.3511 49.76C57.3511 49.8453 57.3298 49.9093 57.2871 49.952C57.2551 49.984 57.1911 50 57.0951 50H50.3911C50.3698 50 50.3591 49.968 50.3591 49.904C50.3591 49.84 50.3698 49.808 50.3911 49.808C50.7965 49.808 51.0898 49.7813 51.2711 49.728C51.4631 49.6747 51.5911 49.5733 51.6551 49.424C51.7298 49.264 51.7671 49.024 51.7671 48.704V41.296C51.7671 40.976 51.7298 40.7413 51.6551 40.592C51.5911 40.4427 51.4631 40.3413 51.2711 40.288C51.0898 40.224 50.7965 40.192 50.3911 40.192C50.3698 40.192 50.3591 40.16 50.3591 40.096C50.3591 40.032 50.3698 40 50.3911 40H56.8231C56.9191 40 56.9671 40.048 56.9671 40.144L56.9991 42.112C56.9991 42.144 56.9725 42.1653 56.9191 42.176C56.8658 42.176 56.8338 42.16 56.8231 42.128C56.7911 41.5627 56.6205 41.1253 56.3111 40.816C56.0018 40.496 55.5911 40.336 55.0791 40.336H54.1031C53.7298 40.336 53.4525 40.368 53.2711 40.432C53.1005 40.4853 52.9778 40.5867 52.9031 40.736C52.8391 40.8747 52.8071 41.088 52.8071 41.376V44.624H54.7591C55.2711 44.624 55.6338 44.5387 55.8471 44.368C56.0711 44.1973 56.1831 43.9093 56.1831 43.504C56.1831 43.4827 56.2151 43.472 56.2791 43.472C56.3431 43.472 56.3751 43.4827 56.3751 43.504L56.3591 44.8C56.3591 45.1093 56.3645 45.344 56.3751 45.504L56.3911 46.272C56.3911 46.2933 56.3591 46.304 56.2951 46.304C56.2311 46.304 56.1991 46.2933 56.1991 46.272C56.1991 45.8027 56.0818 45.4667 55.8471 45.264C55.6231 45.0613 55.2445 44.96 54.7111 44.96H52.8071V48.64C52.8071 48.9387 52.8391 49.1573 52.9031 49.296C52.9671 49.4347 53.0845 49.5307 53.2551 49.584C53.4258 49.6373 53.6925 49.664 54.0551 49.664H55.3351C55.8471 49.664 56.2738 49.4827 56.6151 49.12C56.9565 48.7573 57.1858 48.256 57.3031 47.616ZM61.4809 48.704C61.4809 49.024 61.5129 49.264 61.5769 49.424C61.6409 49.5733 61.7635 49.6747 61.9449 49.728C62.1369 49.7813 62.4355 49.808 62.8409 49.808C62.8729 49.808 62.8889 49.84 62.8889 49.904C62.8889 49.968 62.8729 50 62.8409 50C62.5209 50 62.2649 49.9947 62.0729 49.984L60.9369 49.968L59.8329 49.984C59.6409 49.9947 59.3795 50 59.0489 50C59.0169 50 59.0009 49.968 59.0009 49.904C59.0009 49.84 59.0169 49.808 59.0489 49.808C59.4542 49.808 59.7475 49.7813 59.9289 49.728C60.1209 49.6747 60.2489 49.5733 60.3129 49.424C60.3875 49.264 60.4249 49.024 60.4249 48.704V41.296C60.4249 40.976 60.3875 40.7413 60.3129 40.592C60.2489 40.4427 60.1209 40.3413 59.9289 40.288C59.7475 40.224 59.4542 40.192 59.0489 40.192C59.0169 40.192 59.0009 40.16 59.0009 40.096C59.0009 40.032 59.0169 40 59.0489 40L59.8329 40.016C60.2809 40.0373 60.6489 40.048 60.9369 40.048C61.2569 40.048 61.6409 40.0373 62.0889 40.016L62.8409 40C62.8729 40 62.8889 40.032 62.8889 40.096C62.8889 40.16 62.8729 40.192 62.8409 40.192C62.4462 40.192 62.1529 40.224 61.9609 40.288C61.7795 40.352 61.6515 40.464 61.5769 40.624C61.5129 40.7733 61.4809 41.008 61.4809 41.328V48.704ZM66.5694 48.64C66.5694 48.9493 66.6014 49.1733 66.6654 49.312C66.7294 49.4507 66.8467 49.5467 67.0174 49.6C67.188 49.6427 67.4654 49.664 67.8494 49.664H69.5934C70.2014 49.664 70.6867 49.4773 71.0494 49.104C71.412 48.7307 71.652 48.2133 71.7694 47.552C71.7694 47.52 71.796 47.5093 71.8494 47.52C71.9134 47.52 71.9454 47.536 71.9454 47.568C71.8494 48.4533 71.8014 49.184 71.8014 49.76C71.8014 49.8453 71.7854 49.9093 71.7534 49.952C71.7214 49.984 71.6574 50 71.5614 50H64.1694C64.148 50 64.1374 49.968 64.1374 49.904C64.1374 49.84 64.148 49.808 64.1694 49.808C64.5747 49.808 64.868 49.7813 65.0494 49.728C65.2414 49.6747 65.3694 49.5733 65.4334 49.424C65.4974 49.264 65.5294 49.024 65.5294 48.704V41.296C65.5294 40.976 65.4974 40.7413 65.4334 40.592C65.3694 40.4427 65.2414 40.3413 65.0494 40.288C64.868 40.224 64.5747 40.192 64.1694 40.192C64.148 40.192 64.1374 40.16 64.1374 40.096C64.1374 40.032 64.148 40 64.1694 40L64.9534 40.016C65.4014 40.0373 65.764 40.048 66.0414 40.048C66.34 40.048 66.7134 40.0373 67.1614 40.016L67.9294 40C67.9614 40 67.9774 40.032 67.9774 40.096C67.9774 40.16 67.9614 40.192 67.9294 40.192C67.5347 40.192 67.2414 40.224 67.0494 40.288C66.868 40.3413 66.74 40.448 66.6654 40.608C66.6014 40.7573 66.5694 40.992 66.5694 41.312V48.64ZM74.4606 41.872C74.4606 42.288 74.562 42.6507 74.7646 42.96C74.9673 43.2693 75.2126 43.5307 75.5006 43.744C75.7993 43.9467 76.2046 44.2027 76.7166 44.512C77.282 44.8533 77.714 45.136 78.0126 45.36C78.322 45.584 78.5833 45.872 78.7966 46.224C79.0206 46.5653 79.1326 46.976 79.1326 47.456C79.1326 47.968 79.0046 48.432 78.7486 48.848C78.4926 49.264 78.114 49.5947 77.6126 49.84C77.122 50.0747 76.53 50.192 75.8366 50.192C75.0153 50.192 74.2633 50.0053 73.5806 49.632C73.5273 49.6 73.49 49.5627 73.4686 49.52C73.458 49.4773 73.4473 49.4133 73.4366 49.328L73.2286 47.152C73.218 47.1093 73.2393 47.0827 73.2926 47.072C73.3566 47.0613 73.394 47.0773 73.4046 47.12C73.5753 47.888 73.89 48.5493 74.3486 49.104C74.818 49.6587 75.4366 49.936 76.2046 49.936C76.738 49.936 77.186 49.792 77.5486 49.504C77.922 49.2053 78.1086 48.736 78.1086 48.096C78.1086 47.616 78.002 47.2 77.7886 46.848C77.5753 46.496 77.314 46.208 77.0046 45.984C76.706 45.7493 76.2953 45.4773 75.7726 45.168C75.2606 44.8587 74.8553 44.592 74.5566 44.368C74.2686 44.144 74.0233 43.8613 73.8206 43.52C73.618 43.1787 73.5166 42.7787 73.5166 42.32C73.5166 41.7867 73.6553 41.3333 73.9326 40.96C74.2206 40.576 74.5886 40.2933 75.0366 40.112C75.4953 39.92 75.9806 39.824 76.4926 39.824C77.122 39.824 77.746 39.952 78.3646 40.208C78.5246 40.2613 78.6046 40.352 78.6046 40.48L78.7166 42.32C78.7166 42.3627 78.69 42.384 78.6366 42.384C78.5833 42.384 78.5513 42.3627 78.5406 42.32C78.4553 41.7653 78.226 41.2533 77.8526 40.784C77.4793 40.304 76.9406 40.064 76.2366 40.064C75.6393 40.064 75.1913 40.24 74.8926 40.592C74.6046 40.9333 74.4606 41.36 74.4606 41.872Z" fill="black"/>
</svg>
