<svg width="51" height="41" viewBox="0 0 51 41" fill="none" xmlns="http://www.w3.org/2000/svg">
<path d="M5.5 35.5L18 20.5M45.5 35.5L33 20.5M3 10.5L21.0625 22.5415C22.6662 23.6108 23.468 24.1455 24.3348 24.353M24.3348 24.353C25.1008 24.5367 23.5688 24.5367 24.3348 24.353ZM24.3348 24.353C25.2015 24.1455 28.3338 23.6108 29.9375 22.5415L48 10.5M11 38H40C42.8003 38 44.2005 38 45.27 37.455C46.2108 36.9757 46.9757 36.2108 47.455 35.27C48 34.2005 48 32.8003 48 30V11C48 8.19975 48 6.7996 47.455 5.73005C46.9757 4.78923 46.2108 4.02432 45.27 3.54497C44.2005 3 42.8003 3 40 3H11C8.19975 3 6.7996 3 5.73005 3.54497C4.78923 4.02432 4.02432 4.78923 3.54497 5.73005C3 6.7996 3 8.19972 3 11V30C3 32.8003 3 34.2005 3.54497 35.27C4.02432 36.2108 4.78923 36.9757 5.73005 37.455C6.7996 38 8.19972 38 11 38Z" stroke="#FFECD1" stroke-width="5" stroke-linecap="round" stroke-linejoin="round"/>
</svg>
