<svg width="610" height="312" viewBox="0 0 610 312" fill="none" xmlns="http://www.w3.org/2000/svg">
<g clip-path="url(#clip0_23_609)">
<path d="M582.924 172.491L581.013 187.716L576.27 225.534H480.998C481.742 217.058 482.759 204.858 483.845 191.687C483.952 190.372 484.065 189.048 484.172 187.716C486.896 154.61 489.878 117.146 489.878 117.146L502.403 119.481L526.704 124.002L536.607 125.844L563.124 130.785C576.345 133.243 585.44 152.398 582.924 172.491Z" fill="#15616D"/>
<path d="M510.859 55.8822L522.575 76.3977L500.057 92.3666L490.451 67.1491L510.859 55.8822Z" fill="#FFB6B6"/>
<path d="M495.943 75.2907C511.973 75.2907 524.968 62.2876 524.968 46.2474C524.968 30.2073 511.973 17.2041 495.943 17.2041C479.913 17.2041 466.918 30.2073 466.918 46.2474C466.918 62.2876 479.913 75.2907 495.943 75.2907Z" fill="#FFB6B6"/>
<path d="M493.859 52.7403C491.554 49.2305 492.459 47.3948 490.53 46.1049C490.529 46.1049 489.753 45.5859 484.196 45.29C482.952 36.33 481.399 35.2435 481.399 35.2434C479.609 33.9912 476.953 34.3981 475.3 35.164C471.805 36.7839 472.211 40.283 469.857 40.9526C466.606 41.8776 460.692 36.663 460.109 30.6934C459.634 25.8239 462.769 21.0944 464.013 21.3446C465.246 21.5927 468.198 17.8216 469.792 17.8797C470.88 17.9195 475.328 15.9851 476.524 16.1364C477.831 16.3016 482.139 18.5512 482.318 18.0372C483.566 14.4656 483.199 13.4746 484.258 12.4528C486.133 10.6423 489.202 11.9031 494.016 12.58C503.92 13.9727 505.649 10.7048 510.725 12.9198C513.289 14.0387 515.434 17.0563 519.621 23.0458C525.475 31.422 528.402 35.6101 528.421 40.495C528.44 45.4766 526.03 45.1604 524.971 52.5353C523.792 60.7449 526.296 64.4987 523.56 67.1658C521.446 69.2272 517.147 69.7165 514.889 67.9074C511.022 64.81 516.082 57.336 511.804 51.8755C509.177 48.5236 503.895 47.0322 501.476 48.689C498.74 50.5625 500.247 56.0613 498.323 56.5828C496.675 57.0293 494.261 53.3519 493.859 52.7403Z" fill="#2F2E41"/>
<path d="M561.471 167.129C560.661 180.98 557.446 185.353 556.319 201.711C556.073 205.302 555.925 209.471 555.925 214.443C555.925 215.71 555.932 216.936 555.932 218.133C555.932 220.682 555.883 223.09 555.587 225.534C555.363 227.484 554.976 229.449 554.335 231.519H491.823C491.816 231.505 491.816 231.491 491.808 231.477C491.443 229.885 491.21 228.364 491.034 226.907C490.978 226.442 490.929 225.984 490.887 225.534C490.83 225.005 490.781 224.484 490.732 223.97C490.542 221.921 490.352 219.985 489.901 218.133C489.296 215.576 488.198 213.168 485.946 210.844C485.025 209.894 484.103 209.154 483.202 208.507C483.026 208.387 482.857 208.267 482.681 208.147C480.19 206.436 477.833 205.204 475.792 201.711C475.757 201.662 475.728 201.605 475.7 201.556C475.348 200.944 474.434 199.338 473.772 197.197C473.075 194.972 472.653 192.176 473.413 189.318C475.222 182.543 481.921 181.867 487.396 175.023C487.987 174.283 488.571 173.466 489.127 172.558C491.604 168.53 492.273 164.981 493.061 160.763C493.188 160.08 493.3 159.404 493.392 158.749C493.462 158.256 493.526 157.77 493.575 157.291C494.011 153.27 493.8 149.806 493.287 146.707C491.612 136.56 486.671 130.279 490.162 121.174C491.26 118.315 492.815 116.167 494.384 114.329C497.705 110.435 501.119 107.907 500.528 102.879C499.929 97.8092 496.087 97.1119 495.658 92.6825C495.44 90.4434 496.172 88.0844 497.544 85.7676V85.7607C501.935 78.3032 512.9 71.4374 519.866 71.6558C521.154 71.6912 522.294 71.9797 523.244 72.536C526.686 74.564 525.25 78.9933 530.521 85.2044C534.44 89.8166 538.874 91.6617 540.556 92.5347C547.22 96.0136 552.639 106.273 556.319 119.392C556.347 119.491 556.375 119.589 556.404 119.695C558.677 127.913 560.282 137.243 561.077 146.707C561.414 150.714 561.612 154.742 561.653 158.728C561.689 161.911 561.618 164.671 561.471 167.129Z" fill="#FF7D00"/>
<path d="M514.659 214.584L513.385 218.133L512.583 220.358L510.725 225.534L508.572 231.519H494.729L497.052 225.534L498.129 222.745L499.916 218.133L502.914 210.387L514.659 214.584Z" fill="#FFB6B6"/>
<path d="M556.538 118.181C556.503 118.639 556.454 119.146 556.404 119.695C555.856 125.286 554.56 135.293 552.668 146.708C551.668 152.728 550.5 159.143 549.184 165.516C546.355 179.269 542.837 192.81 538.86 201.711C538.15 203.317 537.418 204.767 536.671 206.049C536.102 207.028 535.503 207.992 534.877 208.943C532.85 212.063 530.577 215.02 528.22 217.781C528.128 217.9 528.023 218.013 527.917 218.133C527.537 218.583 527.143 219.027 526.749 219.471C524.821 221.646 522.85 223.674 520.943 225.534C518.621 227.801 516.383 229.808 514.377 231.519H491.9L491.809 231.477L488.572 230.04C488.572 230.04 489.493 228.956 491.035 226.907C491.352 226.491 491.689 226.033 492.055 225.534C492.506 224.921 492.991 224.245 493.512 223.512C494.595 221.978 495.827 220.175 497.15 218.133C499.712 214.182 502.632 209.323 505.581 203.697C505.919 203.042 506.263 202.38 506.608 201.711C506.615 201.69 506.63 201.669 506.636 201.648C507.221 200.507 507.798 199.331 508.374 198.134C513.266 187.951 514.666 179.501 515.067 176.762C515.63 172.889 516.411 167.474 516.2 161.516C516.059 157.587 515.489 153.432 514.131 149.306V149.299C513.85 148.433 513.533 147.567 513.174 146.707C512.534 145.165 511.774 143.644 510.873 142.144C506.897 135.539 503.667 135.265 501.098 128.068C500.338 125.934 498.614 121.118 499.141 116.033V116.026C499.205 115.4 499.311 114.766 499.451 114.132V114.125C499.486 113.949 499.536 113.766 499.585 113.59C499.986 112.034 500.648 110.491 501.654 109.027C503.617 106.182 506.298 104.492 508.698 103.485L508.706 103.478C511.478 102.323 513.871 102.077 514.336 102.034C524.617 101.119 532.59 109.766 536.946 114.491C538.628 116.315 540.169 117.843 541.577 119.089C552.534 128.878 555.539 122.624 556.32 119.392C556.439 118.892 556.503 118.463 556.538 118.181Z" fill="#FF7D00"/>
<path d="M556.573 117.815C556.573 117.85 556.566 117.97 556.538 118.167C556.552 118.061 556.559 117.956 556.566 117.857C556.566 117.836 556.566 117.822 556.573 117.815Z" fill="#FF7D00"/>
<path d="M500.683 266.404H123.449C119.944 266.404 117.087 269.256 117.087 272.763C117.087 276.277 119.944 279.129 123.449 279.129H500.683C504.187 279.129 507.038 276.277 507.038 272.763C507.038 269.256 504.187 266.404 500.683 266.404Z" fill="#15616D"/>
<path d="M416.967 299.276H207.157C203.652 299.276 200.802 302.127 200.802 305.634C200.802 309.141 203.652 312 207.157 312H416.967C420.471 312 423.329 309.141 423.329 305.634C423.329 302.127 420.471 299.276 416.967 299.276Z" fill="#15616D"/>
<path d="M165.425 57.2322L189.2 47.2203L199.397 68.1383L174.414 78.3423L165.425 57.2322Z" fill="#FFB6B6"/>
<path opacity="0.1" d="M165.425 57.2322L189.2 47.2203L199.397 68.1383L174.414 78.3423L165.425 57.2322Z" fill="black"/>
<path d="M168.805 49.2611L192.259 76.3015C192.259 76.3015 175.943 127.831 159.628 132.423C143.312 137.015 113.23 159.463 113.23 159.463L75.4993 134.974L93.8545 107.934C93.8545 107.934 138.213 47.2203 149.94 47.2203C161.667 47.2203 168.805 49.2611 168.805 49.2611Z" fill="#FF7D00"/>
<path d="M137.117 225.534H82.5201L79.0682 220.916L64.9755 202.065L61.7327 197.728C61.7327 197.728 49.4959 175.279 52.0452 154.872C54.5946 134.464 81.1077 129.872 81.1077 129.872H82.1988L114.657 158.412L112.72 184.973L122.999 202.065L137.117 225.534Z" fill="#2F2E41"/>
<path d="M93.7016 225.534H79.0684V203.85L93.7016 225.534Z" fill="#2F2E41"/>
<path d="M409.32 192.616L407.5 202.065L402.982 225.534H312.231C312.94 220.274 313.908 212.702 314.943 204.529C315.045 203.713 315.152 202.891 315.254 202.065C317.85 181.519 320.69 158.27 320.69 158.27L332.621 159.719L355.769 162.525L365.201 163.667L390.46 166.734C403.054 168.259 411.716 180.147 409.32 192.616Z" fill="#15616D"/>
<path d="M537.751 225.534H488.528C489.278 224.651 489.701 224.141 489.701 224.141L504.457 221.702L534.86 216.682C534.86 216.682 536.247 220.268 537.751 225.534Z" fill="#2F2E41"/>
<path d="M328.962 67.4368L350.368 97.7293L313.029 98.8451L309.021 70.3773L328.962 67.4368Z" fill="#A0616A"/>
<path opacity="0.1" d="M328.962 67.4368L350.368 97.7293L313.029 98.8451L309.021 70.3773L328.962 67.4368Z" fill="black"/>
<path d="M223.396 130.201C220.65 122.272 214.335 117.264 209.293 119.014C204.25 120.763 202.391 128.608 205.139 136.539C206.194 139.722 207.995 142.607 210.392 144.95L222.454 178.397L238.018 172.398L224.475 140.063C224.908 136.736 224.538 133.355 223.396 130.201Z" fill="#A0616A"/>
<path d="M368.295 114.765L368.266 145.637L365.395 157.04L359.491 180.494L355.193 202.065L351.991 218.136L350.849 223.876C349.987 224.452 349.13 225.003 348.274 225.534H273.695C269.458 222.988 267.087 221.008 267.087 221.008C267.087 221.008 268.26 219.906 269.601 218.136C271.865 215.146 274.603 210.248 272.925 205.57C272.574 204.59 272.482 203.396 272.589 202.065C273.272 193.279 282.48 178.422 282.48 178.422L280.573 156.372L279.737 146.709L285.633 99.5917L304.85 88.4133L308.168 88.0921L340.916 86.3217L354.452 87.1023L355.069 87.2707L368.295 114.765Z" fill="#CCCCCC"/>
<path d="M369.75 225.534H353.434L352.715 218.136L352.7 217.988L357.319 217.672L369.337 216.85L369.546 221.279L369.709 224.677L369.75 225.534Z" fill="#FFB6B6"/>
<path d="M373.766 122.229L380.62 162.468L375.027 202.065L374.155 208.228L372.615 219.11L372.141 222.457L372.156 222.819L372.274 225.534H352.899L352.185 218.136L352.124 217.473L350.665 202.32L350.64 202.065L347.545 169.933L353.612 146.709L354.061 144.999V144.994L356.701 105.23L354.656 87.1585L354.636 86.9901C354.677 87.0156 354.712 87.0411 354.753 87.0666C354.86 87.1329 354.967 87.1993 355.069 87.2707C366.98 94.8318 374.077 108.097 373.766 122.229Z" fill="#CCCCCC"/>
<path d="M292.574 107.302L285.124 99.5911C285.124 99.5911 269.174 106.786 268.379 110.778C267.584 114.77 239.423 173.398 239.423 173.398L227.171 140.654L211.223 151.309C211.223 151.309 224.02 202.145 235.987 204.531C247.955 206.918 288.064 144.362 288.064 144.362L292.574 107.302Z" fill="#CCCCCC"/>
<path d="M595.102 201.711H14.891C6.67856 201.711 0 208.401 0 216.618C0 224.836 6.67856 231.519 14.891 231.519H595.102C603.315 231.519 610 224.837 610 216.618C610 208.4 603.315 201.711 595.102 201.711Z" fill="#15616D"/>
<path d="M364.899 156.286L363.771 208.96C363.662 214.059 359.5 218.136 354.403 218.136H257.568C252.591 218.136 248.483 214.243 248.211 209.271L245.334 156.597C245.04 151.225 249.314 146.709 254.69 146.709H355.531C360.785 146.709 365.012 151.03 364.899 156.286Z" fill="#3F3D56"/>
<path d="M208.575 69.9473C221.37 69.9473 231.743 59.5679 231.743 46.7644C231.743 33.9608 221.37 23.5814 208.575 23.5814C195.779 23.5814 185.407 33.9608 185.407 46.7644C185.407 59.5679 195.779 69.9473 208.575 69.9473Z" fill="#FFB6B6"/>
<path d="M169.825 107.423L172.374 134.974L189.71 204.871L174.733 210.123L149.43 133.954L145.935 103.342L169.825 107.423Z" fill="#FFB6B6"/>
<path d="M162.929 156.286L161.801 208.96C161.692 214.059 157.53 218.136 152.433 218.136H55.5976C50.6212 218.136 46.5128 214.243 46.2411 209.271L43.3634 156.597C43.0699 151.225 47.3437 146.709 52.7199 146.709H153.561C158.814 146.709 163.042 151.03 162.929 156.286Z" fill="#3F3D56"/>
<path d="M192.47 218.492C202.575 218.492 210.767 214.866 210.767 210.394C210.767 205.921 202.575 202.296 192.47 202.296C182.365 202.296 174.173 205.921 174.173 210.394C174.173 214.866 182.365 218.492 192.47 218.492Z" fill="#FFB6B6"/>
<path d="M133.879 111.636L144.331 55.8937C144.331 55.8937 173.394 51.8121 174.414 61.5058C175.433 71.1995 173.685 118.574 173.685 118.574L133.879 111.636Z" fill="#FF7D00"/>
<path d="M199.223 50.4095C199.223 50.4095 213.554 45.2913 219.6 42.5374C225.645 39.7835 237.655 58.9916 237.923 48.8472C238.19 38.7028 234.04 34.4486 234.04 34.4486C234.04 34.4486 233.003 12.2563 210.659 15.0309C210.659 15.0309 215.574 3.9278 199.441 2.21092C183.309 0.494031 158.21 39.4769 160.458 45.3027C162.706 51.1284 165.4 55.9449 159.023 62.1739C152.646 68.403 140.705 103.558 149.79 113.018C158.876 122.478 159.472 126.583 153.247 132.468C147.022 138.354 132.308 151.151 148.217 153.372C164.127 155.594 146.762 153.934 158.622 143.495C170.483 133.056 187.79 133.482 181.328 116.733C174.866 99.9839 186.093 75.9825 184.688 72.3414C183.283 68.7003 187.836 45.579 187.836 45.579C187.836 45.579 198.43 44.0214 199.223 50.4095Z" fill="#2F2E41"/>
<path d="M317.516 78.4012C331.445 78.4012 342.737 67.1025 342.737 53.1649C342.737 39.2272 331.445 27.9286 317.516 27.9286C303.588 27.9286 292.296 39.2272 292.296 53.1649C292.296 67.1025 303.588 78.4012 317.516 78.4012Z" fill="#A0616A"/>
<path d="M319.529 19.2364C318.8 19.6627 317.822 19.0178 317.588 18.2053C317.354 17.3928 317.627 16.5302 317.897 15.729L319.258 11.6961C320.223 8.83582 321.247 5.87561 323.337 3.69858C326.492 0.412695 331.506 -0.423217 336.019 0.182372C341.815 0.96007 347.533 4.10047 350.228 9.29354C352.923 14.4866 351.776 21.7328 346.906 24.9727C353.846 32.9324 356.265 41.8031 355.883 52.3595C355.501 62.9158 344.005 72.6311 336.508 80.0676C334.834 79.0521 333.311 74.2927 334.232 72.5637C335.153 70.8347 333.834 68.8316 334.974 67.239C336.114 65.6465 337.068 68.1823 335.915 66.5988C335.188 65.5995 338.027 63.3007 336.946 62.7027C331.716 59.8099 329.977 53.287 326.692 48.2919C322.73 42.2668 315.949 38.1866 308.773 37.5097C304.82 37.1368 300.645 37.8121 297.405 40.1085C294.165 42.4049 292.067 46.5085 292.818 50.4098C290.873 48.4327 289.904 45.5354 290.269 42.7847C290.635 40.034 292.326 37.4904 294.72 36.0906C293.264 31.273 294.512 25.7313 297.891 22.0033C301.27 18.2753 314.978 18.9102 319.911 19.8914L319.529 19.2364Z" fill="#2F2E41"/>
<path d="M320.295 37.6559C326.829 38.3617 331.547 44.0253 335.531 49.2556C337.827 52.2702 340.232 55.5993 340.175 59.3893C340.116 63.221 337.556 66.5076 336.333 70.1389C334.333 76.0744 336.282 83.1363 341.043 87.2032C336.338 88.0965 331.253 84.567 330.441 79.8451C329.495 74.3482 333.66 69.0429 333.166 63.4871C332.732 58.5924 328.877 54.8253 325.6 51.1655C322.323 47.5057 319.245 42.6493 320.753 37.9726L320.295 37.6559Z" fill="#2F2E41"/>
<path d="M417.978 204.901C411.506 208.584 408.159 214.912 410.503 219.033C412.846 223.154 419.991 223.508 426.465 219.822C429.071 218.385 431.296 216.345 432.953 213.871L460.178 197.918L452.424 185.293L426.408 202.361C423.435 202.522 420.545 203.393 417.978 204.901Z" fill="#FFB6B6"/>
<path d="M510.158 87.9106C509.344 87.5879 502.205 84.8828 495.688 88.4544C488.202 92.5571 487.045 101.923 486.64 105.208C485.703 112.796 488.463 114.497 489.046 122.179C490.136 136.552 493.01 120.155 488.42 126.716C486.831 128.987 470.603 164.177 461.654 171.07C444.248 184.475 433.195 193.916 433.195 193.916L445.813 207.632C445.813 207.632 465.752 202.316 483.376 190.865C501.453 179.119 510.492 173.247 517.485 161.758C518.087 160.768 532.497 136.283 524.758 109.209C522.993 103.033 519.759 91.7178 510.158 87.9106Z" fill="#FF7D00"/>
<path d="M575.315 156.286L574.187 208.96C574.077 214.059 569.915 218.136 564.818 218.136H467.983C463.007 218.136 458.899 214.243 458.627 209.271L455.749 156.597C455.456 151.225 459.729 146.709 465.106 146.709H565.946C571.2 146.709 575.427 151.03 575.315 156.286Z" fill="#3F3D56"/>
</g>
<defs>
<clipPath id="clip0_23_609">
<rect width="610" height="312" fill="white"/>
</clipPath>
</defs>
</svg>
